<?xml version="1.0" encoding="utf-8"?>
<!-- Generator: Adobe Illustrator 25.4.1, SVG Export Plug-In . SVG Version: 6.00 Build 0)  -->
<svg version="1.1" id="Layer_1" xmlns="http://www.w3.org/2000/svg" xmlns:xlink="http://www.w3.org/1999/xlink" x="0px" y="0px"
	 viewBox="0 0 1096.65 946.52" style="enable-background:new 0 0 1096.65 946.52;" xml:space="preserve">
<style type="text/css">
	.st0{fill:#212028;}
</style>
<path class="st0" d="M1050.15,151.39l-6.59-10.86C988.02,49.02,887.61-6.15,781.75,0.55c-13.61,0.86-27.16,2.7-40.53,5.56
	c-96.25,20.6-180,93.39-214.72,186.61c-20.42,54.82-26.12,117.95-64.86,161.46c-50.42,56.63-136.03,58.41-211.29,56.07
	c-75.26-2.35-160.92-0.34-211.1,56.51C7.83,502.37-2.16,553.01,0.38,600.69c6.71,126.25,94.69,239.14,206.57,295.26
	c111.88,56.11,243.61,61.14,366.06,36.45c171.54-34.58,334.67-129.54,432.72-276.21C1103.78,509.52,1128.6,309.7,1050.15,151.39z"/>
</svg>
