<?xml version="1.0" encoding="utf-8"?>
<!-- Generator: Adobe Illustrator 25.4.1, SVG Export Plug-In . SVG Version: 6.00 Build 0)  -->
<svg version="1.1" id="Layer_1" xmlns="http://www.w3.org/2000/svg" xmlns:xlink="http://www.w3.org/1999/xlink" x="0px" y="0px"
	 viewBox="0 0 257.73 81.87" style="enable-background:new 0 0 257.73 81.87;" xml:space="preserve">
<style type="text/css">
	.st0{fill:#21C0AA;}
</style>
<g>
	<g>
		<path class="st0" d="M28.62,39.9H14.58l-2.04,6.3H0l15.84-42h11.28l16.56,42h-12.9L28.62,39.9z M25.5,30.6l-4.08-12.06L17.58,30.6
			H25.5z"/>
		<path class="st0" d="M91.28,16.59c2,1.94,3,4.47,3,7.59V46.2h-11.7V26.04c0-0.72-0.21-1.29-0.63-1.71
			c-0.42-0.42-1.03-0.63-1.83-0.63c-0.92,0-1.8,0.29-2.64,0.87c-0.84,0.58-1.5,1.51-1.98,2.79V46.2H63.74V26.04
			c0-1.56-0.8-2.34-2.4-2.34c-2,0-3.56,1.22-4.68,3.66V46.2h-11.7V14.76h8.88l0.84,4.14h0.24c2-3.48,5.1-5.22,9.3-5.22
			c4.64,0,7.8,1.76,9.48,5.28c1-1.64,2.32-2.93,3.96-3.87c1.64-0.94,3.62-1.41,5.94-1.41C86.72,13.68,89.28,14.65,91.28,16.59z"/>
		<path class="st0" d="M121.73,15.51c2.58,1.22,4.66,3.09,6.24,5.61c1.58,2.52,2.37,5.64,2.37,9.36c0,3.72-0.79,6.84-2.37,9.36
			c-1.58,2.52-3.66,4.39-6.24,5.61c-2.58,1.22-5.35,1.83-8.31,1.83c-2.96,0-5.73-0.61-8.31-1.83s-4.66-3.09-6.24-5.61
			c-1.58-2.52-2.37-5.64-2.37-9.36c0-3.72,0.79-6.84,2.37-9.36c1.58-2.52,3.66-4.39,6.24-5.61c2.58-1.22,5.35-1.83,8.31-1.83
			C116.38,13.68,119.15,14.29,121.73,15.51z M109.43,25.41c-0.9,1.14-1.35,2.83-1.35,5.07c0,2.24,0.45,3.93,1.35,5.07
			s2.23,1.71,3.99,1.71c1.76,0,3.09-0.57,3.99-1.71s1.35-2.83,1.35-5.07c0-2.24-0.45-3.93-1.35-5.07s-2.23-1.71-3.99-1.71
			C111.66,23.7,110.33,24.27,109.43,25.41z"/>
		<path class="st0" d="M132.7,14.76h8.82l1.68,4.68h0.18c1-2.2,2.09-3.71,3.27-4.53c1.18-0.82,2.53-1.23,4.05-1.23
			c1.64,0,3.22,0.4,4.74,1.2l-2.04,10.2c-0.68-0.36-1.24-0.6-1.68-0.72c-0.44-0.12-0.9-0.18-1.38-0.18c-1.32,0-2.49,0.48-3.51,1.44
			s-1.87,2.6-2.55,4.92V46.2H132.7V14.76z"/>
		<path class="st0" d="M181.25,36l3.72,7.44c-3.4,2.56-7.84,3.84-13.32,3.84c-5.2,0-9.35-1.42-12.45-4.26
			c-3.1-2.84-4.65-6.98-4.65-12.42c0-3.2,0.67-6.09,2.01-8.67c1.34-2.58,3.21-4.6,5.61-6.06c2.4-1.46,5.16-2.19,8.28-2.19
			c3.24,0,5.97,0.66,8.19,1.98c2.22,1.32,3.87,3.08,4.95,5.28c1.08,2.2,1.62,4.62,1.62,7.26c0,1.96-0.2,3.76-0.6,5.4h-18.72
			c0.84,3.36,3.18,5.04,7.02,5.04C175.99,38.64,178.77,37.76,181.25,36z M167.51,22.98c-0.8,0.72-1.36,1.98-1.68,3.78h8.88
			c-0.12-3.24-1.46-4.86-4.02-4.86C169.37,21.9,168.31,22.26,167.51,22.98z"/>
		<path class="st0" d="M198.08,1.41c1.26,0.94,1.89,2.35,1.89,4.23c0,1.88-0.63,3.29-1.89,4.23c-1.26,0.94-2.81,1.41-4.65,1.41
			c-1.76,0-3.26-0.48-4.5-1.44c-1.24-0.96-1.86-2.36-1.86-4.2c0-1.84,0.62-3.24,1.86-4.2c1.24-0.96,2.74-1.44,4.5-1.44
			C195.27,0,196.82,0.47,198.08,1.41z M199.13,46.2h-11.4V14.76h11.4V46.2z"/>
		<path class="st0" d="M203.14,14.76h8.82l1.68,4.68h0.18c1-2.2,2.09-3.71,3.27-4.53c1.18-0.82,2.53-1.23,4.05-1.23
			c1.64,0,3.22,0.4,4.74,1.2l-2.04,10.2c-0.68-0.36-1.24-0.6-1.68-0.72c-0.44-0.12-0.9-0.18-1.38-0.18c-1.32,0-2.49,0.48-3.51,1.44
			s-1.87,2.6-2.55,4.92V46.2h-11.58V14.76z"/>
		<path class="st0" d="M257.73,38.22l-0.72,7.44c-0.64,0.56-1.48,0.97-2.52,1.23c-1.04,0.26-2.1,0.39-3.18,0.39
			c-1.56,0-2.92-0.31-4.08-0.93c-1.16-0.62-2.02-1.61-2.58-2.97c-0.92,1.2-2.04,2.15-3.36,2.85c-1.32,0.7-2.98,1.05-4.98,1.05
			c-1.96,0-3.78-0.42-5.46-1.26c-1.68-0.84-3.02-2.03-4.02-3.57c-1-1.54-1.5-3.31-1.5-5.31c0-3,1.14-5.39,3.42-7.17
			c2.28-1.78,5.24-2.67,8.88-2.67c2.08,0,3.88,0.16,5.4,0.48V27c0-1.56-0.39-2.66-1.17-3.3c-0.78-0.64-1.99-0.96-3.63-0.96
			c-1.24,0-2.54,0.23-3.9,0.69c-1.36,0.46-2.6,1.03-3.72,1.71l-4.08-6.96c1.68-1.48,3.76-2.6,6.24-3.36
			c2.48-0.76,4.86-1.14,7.14-1.14c4.88,0,8.52,1.06,10.92,3.18c2.4,2.12,3.6,5.1,3.6,8.94v10.32c0,1.4,0.48,2.1,1.44,2.1H257.73z
			 M243.21,36.66V34.2c-1.16-0.44-2.5-0.66-4.02-0.66c-1.08,0-1.92,0.25-2.52,0.75c-0.6,0.5-0.9,1.21-0.9,2.13
			c0,0.88,0.3,1.56,0.9,2.04c0.6,0.48,1.36,0.72,2.28,0.72C240.91,39.18,242.33,38.34,243.21,36.66z"/>
	</g>
	<path class="st0" d="M2.4,56.72h16.7v5.95H9.4v4.94h8.44v5.95H9.4v7.67h-7V56.72z"/>
	<path class="st0" d="M95.37,57.48c1.94,0.92,3.5,2.34,4.67,4.25c1.18,1.91,1.77,4.28,1.77,7.11c0,2.83-0.59,5.22-1.77,7.18
		c-1.18,1.96-2.74,3.43-4.67,4.39c-1.94,0.97-4.04,1.45-6.3,1.45c-2.26,0-4.37-0.49-6.3-1.45c-1.94-0.97-3.5-2.43-4.67-4.39
		c-1.18-1.96-1.77-4.35-1.77-7.18c0-2.82,0.59-5.19,1.77-7.11c1.18-1.91,2.74-3.33,4.67-4.25c1.94-0.92,4.04-1.38,6.3-1.38
		C91.33,56.09,93.43,56.55,95.37,57.48z M85.25,64.17c-0.93,1.06-1.4,2.63-1.4,4.71c0,2.1,0.47,3.71,1.4,4.83
		c0.93,1.12,2.21,1.68,3.82,1.68s2.88-0.56,3.82-1.68c0.93-1.12,1.4-2.73,1.4-4.83c0-2.08-0.47-3.65-1.4-4.71
		c-0.93-1.06-2.21-1.59-3.82-1.59S86.18,63.1,85.25,64.17z"/>
	<path class="st0" d="M173.68,57.48c1.94,0.92,3.5,2.34,4.67,4.25c1.18,1.91,1.77,4.28,1.77,7.11c0,2.83-0.59,5.22-1.77,7.18
		c-1.18,1.96-2.74,3.43-4.67,4.39c-1.94,0.97-4.04,1.45-6.3,1.45c-2.26,0-4.37-0.49-6.3-1.45c-1.94-0.97-3.5-2.43-4.67-4.39
		c-1.18-1.96-1.77-4.35-1.77-7.18c0-2.82,0.59-5.19,1.77-7.11c1.18-1.91,2.74-3.33,4.67-4.25c1.94-0.92,4.04-1.38,6.3-1.38
		C169.64,56.09,171.74,56.55,173.68,57.48z M163.56,64.17c-0.93,1.06-1.4,2.63-1.4,4.71c0,2.1,0.47,3.71,1.4,4.83
		c0.93,1.12,2.21,1.68,3.82,1.68s2.88-0.56,3.82-1.68c0.93-1.12,1.4-2.73,1.4-4.83c0-2.08-0.47-3.65-1.4-4.71
		c-0.93-1.06-2.21-1.59-3.82-1.59S164.49,63.1,163.56,64.17z"/>
	<path class="st0" d="M250.18,58.19c2.05,0.98,3.66,2.39,4.81,4.22c1.16,1.83,1.73,3.99,1.73,6.46c0,2.5-0.58,4.68-1.73,6.55
		c-1.16,1.87-2.76,3.3-4.81,4.31c-2.05,1-4.4,1.51-7.04,1.51h-8.51V56.72h8.51C245.78,56.72,248.13,57.21,250.18,58.19z
		 M241.78,63.1v11.87h1.75c3.78,0,5.67-2.03,5.67-6.09c0-2.08-0.49-3.56-1.45-4.45c-0.97-0.89-2.38-1.33-4.22-1.33H241.78z"/>
</g>
</svg>
