<?xml version="1.0" encoding="utf-8"?>
<!-- Generator: Adobe Illustrator 25.4.1, SVG Export Plug-In . SVG Version: 6.00 Build 0)  -->
<svg version="1.1" id="Layer_1" xmlns="http://www.w3.org/2000/svg" xmlns:xlink="http://www.w3.org/1999/xlink" x="0px" y="0px"
	 viewBox="0 0 273.52 211.56" style="enable-background:new 0 0 273.52 211.56;" xml:space="preserve">
<style type="text/css">
	.st0{fill:#FEB95A;}
	.st1{fill:#C4C4C2;}
</style>
<g>
	<g>
		<g>
			<path class="st0" d="M46.13,92.26C20.69,92.26,0,71.56,0,46.13C0,20.69,20.69,0,46.13,0s46.13,20.69,46.13,46.13
				C92.26,71.56,71.56,92.26,46.13,92.26z M46.13,4.68c-22.85,0-41.45,18.59-41.45,41.45c0,22.85,18.59,41.45,41.45,41.45
				s41.45-18.59,41.45-41.45C87.57,23.27,68.98,4.68,46.13,4.68z"/>
		</g>
		<g>
			<path class="st0" d="M71.05,18.92c-0.75-0.49-4.37,3.22-4.37,3.22L46.13,42.33L43,39.46c1.31-1.86,2.43-4.37,1.04-6.2
				c-8.22-8.22-17.76-15.95-18.2-15.55c-0.72,0.65,6.68,7.28,10.44,10.93c1.42,1.38,2.17,2.08,1.5,2.89
				c-0.84,0.84-1.64-0.11-3.08-1.41c-3.9-3.53-10.81-10.47-11.56-9.72c-0.53,0.53,9.99,10.69,11.27,12.06
				c1.28,1.37,0.31,2.25,0.31,2.25s-0.88,0.97-2.25-0.31c-1.37-1.28-11.53-11.8-12.06-11.27c-0.75,0.75,6.2,7.65,9.72,11.56
				c1.3,1.44,2.24,2.24,1.41,3.08c-0.81,0.67-1.51-0.08-2.89-1.5c-3.66-3.76-10.28-11.16-10.93-10.44
				c-0.4,0.44,7.34,9.99,15.55,18.2c1.81,1.38,4.29,0.29,6.14-1l2.86,3.09L20.38,67.64c0.22,5.43,5.74,5.74,5.74,5.74l17.79-21.29
				c0,0,4.43,3.58,6.55,2.34C76.66,31.59,71.8,19.4,71.05,18.92z"/>
			<path class="st0" d="M74.26,68.26l-18.24-16.8c-1.4,1.5-2.91,3.05-4.55,4.64l16.78,18.16c0.76,0.76,2.72,0.03,4.37-1.63
				C74.29,70.97,75.02,69.01,74.26,68.26z"/>
		</g>
	</g>
	<g>
		<path class="st1" d="M38.16,151.75l-3.39-8.23l-16.52-1.87l-4.09,10.16H5l7.01-17.4c2.8-6.95,6.07-15.06,9.75-24.35h8.58
			l16.76,41.68H38.16z M29.29,129.91l-3.21-8.06c-0.53,1.23-1.23,3.09-2.22,5.55l-2.92,7.41c0.99,0.12,2.57,0.29,4.61,0.47
			c2.04,0.18,4.15,0.35,6.19,0.64L29.29,129.91z"/>
		<path class="st1" d="M102.51,133.07v18.68h-8.52v-17.11c0-1.23-0.12-2.34-0.41-3.21c-0.29-0.88-0.76-1.58-1.34-2.1
			c-0.53-0.53-1.23-0.88-1.98-1.11c-0.76-0.29-1.58-0.41-2.45-0.41c-1.28,0-2.39,0.23-3.33,0.7c-0.93,0.47-1.69,1.17-2.34,2.1
			c-0.64,0.99-1.11,2.04-1.4,3.15c-0.29,1.17-0.47,2.45-0.47,3.79v1.28v12.9h-8.52v-17.11c0-1.23-0.12-2.34-0.41-3.21
			c-0.29-0.88-0.76-1.58-1.28-2.1c-0.53-0.53-1.17-0.88-1.93-1.11c-0.76-0.29-1.63-0.41-2.51-0.41c-1.34,0-2.45,0.23-3.39,0.7
			c-0.93,0.47-1.69,1.17-2.34,2.1c-0.64,0.99-1.05,2.04-1.34,3.15c-0.29,1.17-0.47,2.45-0.47,3.79v14.25h-8.7
			c-0.06-3.56-0.06-8.06-0.06-13.43v-18.74h8.76v4.67c0.53-0.64,1.05-1.28,1.63-1.81c0.64-0.53,1.28-1.05,1.99-1.46
			c0.64-0.41,1.4-0.76,2.16-1.05c0.76-0.23,1.58-0.41,2.45-0.47c0.18-0.06,0.29-0.06,0.41-0.06h0.35h0.76
			c1.11,0,2.22,0.12,3.21,0.35c0.99,0.23,1.93,0.58,2.8,0.99c0.88,0.41,1.64,0.93,2.34,1.58c0.7,0.64,1.28,1.34,1.81,2.1
			c0.64-0.76,1.34-1.46,2.16-2.1c0.76-0.64,1.69-1.17,2.69-1.58c0.99-0.47,2.1-0.82,3.33-0.99c1.23-0.23,2.51-0.35,3.91-0.35
			c1.93,0,3.62,0.29,5.14,0.93c1.58,0.64,2.86,1.52,3.97,2.74c1.11,1.23,1.93,2.63,2.51,4.26c0.53,1.63,0.82,3.5,0.82,5.55
			C102.51,133.01,102.51,133.07,102.51,133.07z"/>
		<path class="st1" d="M121.99,151.92c-0.76-0.12-1.46-0.29-2.22-0.47c-0.76-0.18-1.46-0.47-2.1-0.76c-0.7-0.29-1.34-0.64-1.98-1.05
			c-1.11-0.7-2.16-1.52-3.09-2.51c-0.93-0.99-1.75-2.1-2.51-3.33c-0.7-1.23-1.23-2.51-1.58-3.85c-0.35-1.34-0.53-2.8-0.53-4.26
			c0-0.76,0.06-1.58,0.17-2.34c0.12-0.76,0.29-1.46,0.47-2.22c0.18-0.76,0.47-1.46,0.76-2.1c0.29-0.64,0.64-1.34,1.05-1.99
			c0.7-1.11,1.52-2.16,2.51-3.09c0.99-0.93,2.1-1.75,3.33-2.51c1.23-0.7,2.51-1.23,3.85-1.58c1.34-0.35,2.74-0.53,4.2-0.53
			c0.76,0,1.58,0.06,2.34,0.18s1.46,0.29,2.22,0.47c0.76,0.18,1.46,0.47,2.1,0.76s1.34,0.64,1.98,1.05c1.11,0.7,2.16,1.52,3.09,2.51
			c0.93,0.99,1.75,2.1,2.51,3.33c0.76,1.23,1.28,2.51,1.64,3.85c0.35,1.34,0.53,2.74,0.53,4.2c0,1.46-0.18,2.92-0.53,4.26
			c-0.35,1.34-0.88,2.63-1.64,3.85c-0.76,1.23-1.58,2.34-2.51,3.33c-0.93,0.99-1.98,1.81-3.09,2.51c-0.64,0.41-1.34,0.76-1.98,1.05
			c-0.64,0.29-1.34,0.58-2.1,0.76c-0.76,0.18-1.46,0.35-2.22,0.47s-1.58,0.18-2.34,0.18S122.75,152.04,121.99,151.92z
			 M121.23,128.28c-0.93,0.41-1.81,0.99-2.57,1.75c-0.76,0.76-1.34,1.63-1.75,2.57c-0.41,0.99-0.58,1.99-0.58,3.09
			c0,1.11,0.18,2.1,0.58,3.09c0.41,0.93,0.99,1.81,1.75,2.57c0.76,0.76,1.63,1.34,2.57,1.75c0.93,0.41,1.99,0.58,3.09,0.58
			s2.1-0.18,3.09-0.58c0.93-0.41,1.81-0.99,2.57-1.75c0.76-0.76,1.34-1.63,1.75-2.57c0.41-0.99,0.58-1.98,0.58-3.09
			c0-1.11-0.18-2.1-0.58-3.09c-0.41-0.93-0.99-1.81-1.75-2.57c-0.76-0.76-1.63-1.34-2.57-1.75c-0.99-0.41-1.99-0.58-3.09-0.58
			S122.16,127.87,121.23,128.28z"/>
		<path class="st1" d="M163.51,128.05l-0.58-0.12c-0.17-0.06-0.35-0.06-0.58-0.06c-0.18-0.06-0.41-0.06-0.58-0.06
			c-1.28,0-2.39,0.23-3.33,0.7c-0.93,0.47-1.69,1.17-2.33,2.16c-0.64,0.93-1.05,1.98-1.34,3.09c-0.29,1.17-0.47,2.45-0.47,3.79
			v14.25h-8.7v-13.43c0-5.31,0-11.56-0.06-18.74h8.76v4.67c0.53-0.64,1.05-1.28,1.69-1.81c0.64-0.53,1.28-1.05,1.99-1.46
			c0.64-0.41,1.4-0.76,2.16-1.05c0.76-0.29,1.58-0.41,2.45-0.47c0.12-0.06,0.23-0.06,0.35-0.06h0.41h0.76h0.47h0.23
			c0.06,0,0.18,0,0.23,0.06l-0.41,3.62c-0.18,1.4-0.41,3.09-0.58,5.02C163.86,128.1,163.69,128.05,163.51,128.05z"/>
		<path class="st1" d="M175.94,138.2c0.17,0.88,0.47,1.69,0.93,2.39c0.41,0.64,0.99,1.23,1.63,1.75c0.64,0.53,1.4,0.88,2.22,1.11
			c0.82,0.23,1.69,0.35,2.57,0.35c0.53,0,1.11-0.06,1.69-0.23c0.58-0.18,1.17-0.35,1.69-0.64l1.52-0.93
			c0.47-0.29,0.88-0.64,1.17-0.99c0.06,0,0.06,0,0.06,0s0,0,0-0.06l5.72,5.78c-0.76,0.82-1.58,1.58-2.45,2.22
			c-0.88,0.64-1.87,1.17-2.98,1.69s-2.16,0.88-3.21,1.11c-1.11,0.29-2.16,0.41-3.21,0.41c-2.28,0-4.32-0.35-6.19-1.05
			c-1.87-0.7-3.56-1.75-5.02-3.09c-1.46-1.4-2.63-2.98-3.5-4.79c-0.88-1.81-1.34-3.74-1.52-5.9c-0.06-0.12-0.06-0.23-0.06-0.35
			v-0.35v-0.7c0-0.76,0.06-1.58,0.12-2.34c0.12-0.82,0.29-1.58,0.47-2.34c0.18-0.76,0.41-1.46,0.7-2.1c0.29-0.7,0.58-1.34,0.93-1.99
			c0.64-1.23,1.4-2.28,2.28-3.21s1.93-1.75,3.04-2.45c1.11-0.64,2.22-1.17,3.44-1.52c1.23-0.35,2.51-0.53,3.85-0.53h0.23
			c2.39,0,4.44,0.41,6.25,1.17c1.81,0.82,3.27,1.99,4.5,3.5c1.23,1.52,2.16,3.21,2.8,5.02c0.64,1.81,0.93,3.79,0.93,5.96
			c0,0,0,0.12,0,0.29v0.76l-0.12,1.05c0,0.35-0.06,0.7-0.12,0.99H175.94z M188.38,132.89c-0.17-0.7-0.41-1.4-0.7-2.04
			c-0.29-0.64-0.64-1.23-1.17-1.81c-0.53-0.58-1.11-1.05-1.87-1.34c-0.76-0.29-1.58-0.47-2.57-0.47c-0.88,0-1.64,0.12-2.34,0.41
			c-0.7,0.29-1.34,0.7-1.87,1.23c-0.53,0.53-0.99,1.11-1.34,1.81c-0.29,0.64-0.53,1.4-0.64,2.16
			C181.43,132.89,185.63,132.89,188.38,132.89z"/>
		<path class="st1" d="M202.48,109.13v-2.04h8.58v8.29h-8.58V109.13z M202.48,119.64h8.58v32.17h-8.58v-12.03v-4.03V119.64z"/>
		<path class="st1" d="M235.89,128.05l-0.58-0.12c-0.17-0.06-0.35-0.06-0.58-0.06c-0.18-0.06-0.41-0.06-0.58-0.06
			c-1.28,0-2.39,0.23-3.33,0.7c-0.93,0.47-1.69,1.17-2.33,2.16c-0.64,0.93-1.05,1.98-1.34,3.09c-0.29,1.17-0.47,2.45-0.47,3.79
			v14.25h-8.7v-13.43c0-5.31,0-11.56-0.06-18.74h8.76v4.67c0.53-0.64,1.05-1.28,1.69-1.81c0.64-0.53,1.28-1.05,1.99-1.46
			c0.64-0.41,1.4-0.76,2.16-1.05c0.76-0.29,1.58-0.41,2.45-0.47c0.12-0.06,0.23-0.06,0.35-0.06h0.41h0.76h0.47h0.23
			c0.06,0,0.18,0,0.23,0.06l-0.41,3.62c-0.18,1.4-0.41,3.09-0.58,5.02C236.24,128.1,236.06,128.05,235.89,128.05z"/>
		<path class="st1" d="M273.52,119.58v32.29h-6.77l-0.64-1.98c-0.23-0.76-0.58-1.69-0.88-2.74c-0.64,0.76-1.28,1.4-1.98,1.99
			c-0.76,0.58-1.52,1.11-2.39,1.52c-0.88,0.41-1.75,0.76-2.63,1.05c-0.88,0.29-1.81,0.41-2.69,0.41h-0.29h-0.29
			c-1.23,0-2.45-0.18-3.68-0.47c-1.23-0.29-2.39-0.7-3.56-1.34c-1.23-0.64-2.28-1.4-3.27-2.28c-0.93-0.88-1.81-1.93-2.57-3.09
			c-0.41-0.64-0.76-1.34-1.11-2.04c-0.29-0.76-0.58-1.52-0.76-2.28c-0.23-0.76-0.41-1.63-0.53-2.51c-0.12-0.88-0.18-1.75-0.18-2.74
			c0-0.88,0.06-1.69,0.18-2.51c0.12-0.82,0.29-1.58,0.53-2.34c0.23-0.76,0.53-1.46,0.82-2.16c0.29-0.64,0.64-1.28,1.05-1.93
			c0.76-1.11,1.63-2.16,2.57-3.04c0.99-0.88,2.04-1.58,3.27-2.22c1.23-0.64,2.39-1.05,3.62-1.34c1.17-0.29,2.39-0.47,3.62-0.47h0.58
			h0.29c0.12,0,0.23,0,0.29,0.06c0.99,0.06,1.99,0.23,2.86,0.53c0.88,0.23,1.75,0.58,2.51,1.05c0.76,0.41,1.4,0.93,1.99,1.46
			c0.64,0.53,1.17,1.11,1.63,1.69v-4.55H273.52z M264.47,132.19c-0.41-1.05-1.05-2.04-1.93-2.92c-0.88-0.88-1.81-1.58-2.86-2.04
			c-1.05-0.41-2.16-0.64-3.39-0.64c-1.23,0-2.34,0.23-3.33,0.64c-0.99,0.47-1.93,1.17-2.8,2.04c-0.88,0.88-1.52,1.87-1.93,2.92
			c-0.41,1.11-0.64,2.28-0.64,3.5s0.23,2.39,0.64,3.5c0.41,1.11,1.05,2.1,1.93,2.98c0.88,0.88,1.81,1.58,2.86,2.04
			c0.99,0.41,2.1,0.64,3.33,0.64c1.23,0,2.34-0.23,3.39-0.64c1.05-0.47,1.98-1.17,2.86-2.04c0.88-0.88,1.52-1.87,1.93-2.92
			c0.41-1.11,0.7-2.28,0.64-3.56C265.18,134.47,264.88,133.3,264.47,132.19z"/>
		<path class="st1" d="M10.84,211.21v-20.9v-20.84h30.01v8.58H19.6v9.4h12.84v8.29H19.6v15.47H10.84z"/>
		<path class="st1" d="M56.05,211.33c-0.76-0.12-1.46-0.29-2.22-0.47c-0.76-0.18-1.46-0.47-2.1-0.76c-0.7-0.29-1.34-0.64-1.98-1.05
			c-1.11-0.7-2.16-1.52-3.09-2.51c-0.93-0.99-1.75-2.1-2.51-3.33c-0.7-1.23-1.23-2.51-1.58-3.85c-0.35-1.34-0.53-2.8-0.53-4.26
			c0-0.76,0.06-1.58,0.18-2.34c0.12-0.76,0.29-1.46,0.47-2.22c0.18-0.76,0.47-1.46,0.76-2.1c0.29-0.64,0.64-1.34,1.05-1.99
			c0.7-1.11,1.52-2.16,2.51-3.09c0.99-0.93,2.1-1.75,3.33-2.51c1.23-0.7,2.51-1.23,3.85-1.58c1.34-0.35,2.74-0.53,4.2-0.53
			c0.76,0,1.58,0.06,2.34,0.18s1.46,0.29,2.22,0.47c0.76,0.17,1.46,0.47,2.1,0.76c0.64,0.29,1.34,0.64,1.98,1.05
			c1.11,0.7,2.16,1.52,3.09,2.51c0.93,0.99,1.75,2.1,2.51,3.33c0.76,1.23,1.28,2.51,1.64,3.85c0.35,1.34,0.53,2.74,0.53,4.2
			c0,1.46-0.18,2.92-0.53,4.26c-0.35,1.34-0.88,2.63-1.64,3.85c-0.76,1.23-1.58,2.34-2.51,3.33c-0.93,0.99-1.98,1.81-3.09,2.51
			c-0.64,0.41-1.34,0.76-1.98,1.05c-0.64,0.29-1.34,0.58-2.1,0.76c-0.76,0.17-1.46,0.35-2.22,0.47c-0.76,0.12-1.58,0.18-2.34,0.18
			S56.81,211.45,56.05,211.33z M55.29,187.69c-0.93,0.41-1.81,0.99-2.57,1.75c-0.76,0.76-1.34,1.64-1.75,2.57
			c-0.41,0.99-0.58,1.98-0.58,3.09c0,1.11,0.18,2.1,0.58,3.09c0.41,0.93,0.99,1.81,1.75,2.57c0.76,0.76,1.63,1.34,2.57,1.75
			c0.93,0.41,1.99,0.58,3.09,0.58s2.1-0.18,3.09-0.58c0.93-0.41,1.81-0.99,2.57-1.75s1.34-1.63,1.75-2.57
			c0.41-0.99,0.58-1.98,0.58-3.09c0-1.11-0.18-2.1-0.58-3.09c-0.41-0.93-0.99-1.81-1.75-2.57c-0.76-0.76-1.63-1.34-2.57-1.75
			c-0.99-0.41-1.99-0.58-3.09-0.58S56.22,187.28,55.29,187.69z"/>
		<path class="st1" d="M94.92,211.33c-0.76-0.12-1.46-0.29-2.22-0.47c-0.76-0.18-1.46-0.47-2.1-0.76c-0.7-0.29-1.34-0.64-1.98-1.05
			c-1.11-0.7-2.16-1.52-3.09-2.51c-0.93-0.99-1.75-2.1-2.51-3.33c-0.7-1.23-1.23-2.51-1.58-3.85c-0.35-1.34-0.53-2.8-0.53-4.26
			c0-0.76,0.06-1.58,0.17-2.34c0.12-0.76,0.29-1.46,0.47-2.22c0.18-0.76,0.47-1.46,0.76-2.1c0.29-0.64,0.64-1.34,1.05-1.99
			c0.7-1.11,1.52-2.16,2.51-3.09c0.99-0.93,2.1-1.75,3.33-2.51c1.23-0.7,2.51-1.23,3.85-1.58c1.34-0.35,2.74-0.53,4.2-0.53
			c0.76,0,1.58,0.06,2.34,0.18s1.46,0.29,2.22,0.47c0.76,0.17,1.46,0.47,2.1,0.76s1.34,0.64,1.98,1.05c1.11,0.7,2.16,1.52,3.09,2.51
			c0.93,0.99,1.75,2.1,2.51,3.33c0.76,1.23,1.28,2.51,1.64,3.85c0.35,1.34,0.52,2.74,0.52,4.2c0,1.46-0.17,2.92-0.52,4.26
			c-0.35,1.34-0.88,2.63-1.64,3.85c-0.76,1.23-1.58,2.34-2.51,3.33c-0.93,0.99-1.98,1.81-3.09,2.51c-0.64,0.41-1.34,0.76-1.98,1.05
			s-1.34,0.58-2.1,0.76c-0.76,0.17-1.46,0.35-2.22,0.47c-0.76,0.12-1.58,0.18-2.34,0.18S95.68,211.45,94.92,211.33z M94.16,187.69
			c-0.93,0.41-1.81,0.99-2.57,1.75c-0.76,0.76-1.34,1.64-1.75,2.57c-0.41,0.99-0.58,1.98-0.58,3.09c0,1.11,0.18,2.1,0.58,3.09
			c0.41,0.93,0.99,1.81,1.75,2.57c0.76,0.76,1.63,1.34,2.57,1.75c0.93,0.41,1.99,0.58,3.09,0.58s2.1-0.18,3.09-0.58
			c0.93-0.41,1.81-0.99,2.57-1.75s1.34-1.63,1.75-2.57c0.41-0.99,0.58-1.98,0.58-3.09c0-1.11-0.18-2.1-0.58-3.09
			c-0.41-0.93-0.99-1.81-1.75-2.57c-0.76-0.76-1.63-1.34-2.57-1.75c-0.99-0.41-1.99-0.58-3.09-0.58S95.1,187.28,94.16,187.69z"/>
		<path class="st1" d="M154.2,166.09v45.19h-6.89l-0.58-1.98c-0.23-0.76-0.58-1.69-0.93-2.74c-0.64,0.76-1.28,1.4-2.04,1.99
			c-0.7,0.58-1.46,1.11-2.34,1.52c-0.88,0.41-1.81,0.82-2.69,1.11c-0.88,0.29-1.81,0.41-2.69,0.41h-0.35h-0.29
			c-0.64,0-1.34-0.06-2.04-0.12c-0.64-0.12-1.34-0.29-1.98-0.47c-0.64-0.18-1.34-0.41-1.99-0.64l-1.87-0.93
			c-1.17-0.58-2.16-1.46-3.09-2.39c-0.99-0.99-1.81-2.04-2.57-3.27s-1.28-2.63-1.69-4.15c-0.41-1.46-0.58-3.09-0.58-4.9
			c0-0.88,0.06-1.69,0.18-2.57c0.12-0.88,0.29-1.63,0.53-2.39c0.23-0.76,0.53-1.46,0.82-2.16c0.35-0.64,0.7-1.28,1.11-1.93
			c0.76-1.11,1.63-2.16,2.57-3.04c0.99-0.88,2.04-1.63,3.27-2.28c1.23-0.64,2.39-1.17,3.62-1.46c1.23-0.29,2.39-0.47,3.62-0.47h0.64
			c0.06,0.06,0.17,0.06,0.29,0.06h0.29c0.99,0,1.98,0.23,2.86,0.53c0.88,0.29,1.75,0.7,2.51,1.11c0.76,0.47,1.4,0.93,2.04,1.46
			c0.64,0.53,1.17,1.11,1.63,1.69v-17.22C149.88,166.09,152.74,166.09,154.2,166.09z M144.86,191.54c-0.41-1.11-1.05-2.1-1.93-2.98
			c-0.88-0.88-1.81-1.58-2.86-2.04c-1.05-0.47-2.16-0.7-3.39-0.7c-1.23,0-2.34,0.23-3.39,0.7c-1.11,0.47-2.04,1.17-2.92,2.04
			c-0.88,0.88-1.52,1.87-1.93,2.98c-0.41,1.11-0.64,2.28-0.64,3.5c0,1.23,0.23,2.45,0.64,3.56c0.41,1.11,1.05,2.1,1.93,2.98
			s1.81,1.58,2.92,2.04c1.11,0.41,2.22,0.64,3.44,0.64c1.23,0,2.34-0.23,3.39-0.7c1.05-0.47,1.98-1.17,2.86-2.04
			c0.88-0.88,1.52-1.87,1.93-2.98c0.41-1.11,0.64-2.28,0.64-3.5C145.5,193.82,145.27,192.65,144.86,191.54z"/>
	</g>
</g>
</svg>
